<mxfile host="app.diagrams.net" agent="Mozilla/5.0 (X11; Linux x86_64; rv:133.0) Gecko/20100101 Firefox/133.0" version="26.0.4">
  <diagram name="Page-1" id="eJv8hWQeOUuQUPY9vfxD">
    <mxGraphModel dx="1195" dy="1563" grid="1" gridSize="10" guides="1" tooltips="1" connect="1" arrows="1" fold="1" page="1" pageScale="1" pageWidth="850" pageHeight="1100" math="0" shadow="0">
      <root>
        <mxCell id="0" />
        <mxCell id="1" parent="0" />
        <mxCell id="v9P5yah0kmGHicEK6p0b-3" value="" style="edgeStyle=orthogonalEdgeStyle;rounded=0;orthogonalLoop=1;jettySize=auto;html=1;" edge="1" parent="1" source="v9P5yah0kmGHicEK6p0b-1" target="v9P5yah0kmGHicEK6p0b-2">
          <mxGeometry relative="1" as="geometry" />
        </mxCell>
        <mxCell id="v9P5yah0kmGHicEK6p0b-1" value="negotiating ports" style="ellipse;whiteSpace=wrap;html=1;" vertex="1" parent="1">
          <mxGeometry x="40" y="240" width="120" height="80" as="geometry" />
        </mxCell>
        <mxCell id="v9P5yah0kmGHicEK6p0b-6" style="edgeStyle=orthogonalEdgeStyle;rounded=0;orthogonalLoop=1;jettySize=auto;html=1;exitX=1;exitY=0.5;exitDx=0;exitDy=0;" edge="1" parent="1" source="v9P5yah0kmGHicEK6p0b-2" target="v9P5yah0kmGHicEK6p0b-7">
          <mxGeometry relative="1" as="geometry">
            <mxPoint x="310" y="440.3333333333335" as="targetPoint" />
          </mxGeometry>
        </mxCell>
        <mxCell id="v9P5yah0kmGHicEK6p0b-2" value="&lt;div&gt;rtp packet creation\sending&lt;br&gt;&lt;/div&gt;" style="whiteSpace=wrap;html=1;" vertex="1" parent="1">
          <mxGeometry x="40" y="410" width="120" height="60" as="geometry" />
        </mxCell>
        <mxCell id="v9P5yah0kmGHicEK6p0b-4" value="" style="endArrow=none;dashed=1;html=1;dashPattern=1 3;strokeWidth=2;rounded=0;" edge="1" parent="1">
          <mxGeometry width="50" height="50" relative="1" as="geometry">
            <mxPoint x="200" y="590" as="sourcePoint" />
            <mxPoint x="200" y="360" as="targetPoint" />
          </mxGeometry>
        </mxCell>
        <mxCell id="v9P5yah0kmGHicEK6p0b-5" value="RTCP packet creation/sending" style="rounded=0;whiteSpace=wrap;html=1;" vertex="1" parent="1">
          <mxGeometry x="40" y="490" width="120" height="60" as="geometry" />
        </mxCell>
        <mxCell id="v9P5yah0kmGHicEK6p0b-8" style="edgeStyle=orthogonalEdgeStyle;rounded=0;orthogonalLoop=1;jettySize=auto;html=1;" edge="1" parent="1" source="v9P5yah0kmGHicEK6p0b-7" target="v9P5yah0kmGHicEK6p0b-9">
          <mxGeometry relative="1" as="geometry">
            <mxPoint x="700" y="440.0033333333335" as="targetPoint" />
          </mxGeometry>
        </mxCell>
        <mxCell id="v9P5yah0kmGHicEK6p0b-7" value="rcv packet" style="rounded=0;whiteSpace=wrap;html=1;" vertex="1" parent="1">
          <mxGeometry x="430" y="410.0033333333335" width="120" height="60" as="geometry" />
        </mxCell>
        <mxCell id="v9P5yah0kmGHicEK6p0b-11" value="" style="edgeStyle=orthogonalEdgeStyle;rounded=0;orthogonalLoop=1;jettySize=auto;html=1;" edge="1" parent="1" source="v9P5yah0kmGHicEK6p0b-9" target="v9P5yah0kmGHicEK6p0b-10">
          <mxGeometry relative="1" as="geometry" />
        </mxCell>
        <mxCell id="v9P5yah0kmGHicEK6p0b-16" value="" style="edgeStyle=orthogonalEdgeStyle;rounded=0;orthogonalLoop=1;jettySize=auto;html=1;" edge="1" parent="1" source="v9P5yah0kmGHicEK6p0b-9" target="v9P5yah0kmGHicEK6p0b-15">
          <mxGeometry relative="1" as="geometry" />
        </mxCell>
        <mxCell id="v9P5yah0kmGHicEK6p0b-9" value="process it : inspect header" style="rounded=0;whiteSpace=wrap;html=1;" vertex="1" parent="1">
          <mxGeometry x="640" y="410.0033333333335" width="120" height="60" as="geometry" />
        </mxCell>
        <mxCell id="v9P5yah0kmGHicEK6p0b-10" value="check data squence : data loss using timestam" style="whiteSpace=wrap;html=1;rounded=0;" vertex="1" parent="1">
          <mxGeometry x="840" y="410.0033333333335" width="120" height="60" as="geometry" />
        </mxCell>
        <mxCell id="v9P5yah0kmGHicEK6p0b-12" value="" style="endArrow=none;dashed=1;html=1;dashPattern=1 3;strokeWidth=2;rounded=0;" edge="1" parent="1">
          <mxGeometry width="50" height="50" relative="1" as="geometry">
            <mxPoint x="400" y="590" as="sourcePoint" />
            <mxPoint x="400" y="360" as="targetPoint" />
          </mxGeometry>
        </mxCell>
        <mxCell id="v9P5yah0kmGHicEK6p0b-17" style="edgeStyle=orthogonalEdgeStyle;rounded=0;orthogonalLoop=1;jettySize=auto;html=1;" edge="1" parent="1" source="v9P5yah0kmGHicEK6p0b-15" target="v9P5yah0kmGHicEK6p0b-18">
          <mxGeometry relative="1" as="geometry">
            <mxPoint x="700" y="210" as="targetPoint" />
          </mxGeometry>
        </mxCell>
        <mxCell id="v9P5yah0kmGHicEK6p0b-19" value="No" style="edgeLabel;html=1;align=center;verticalAlign=middle;resizable=0;points=[];" vertex="1" connectable="0" parent="v9P5yah0kmGHicEK6p0b-17">
          <mxGeometry x="-0.1555" y="-2" relative="1" as="geometry">
            <mxPoint as="offset" />
          </mxGeometry>
        </mxCell>
        <mxCell id="v9P5yah0kmGHicEK6p0b-20" style="edgeStyle=orthogonalEdgeStyle;rounded=0;orthogonalLoop=1;jettySize=auto;html=1;" edge="1" parent="1" source="v9P5yah0kmGHicEK6p0b-15" target="v9P5yah0kmGHicEK6p0b-21">
          <mxGeometry relative="1" as="geometry">
            <mxPoint x="850" y="300.00333333333356" as="targetPoint" />
          </mxGeometry>
        </mxCell>
        <mxCell id="v9P5yah0kmGHicEK6p0b-22" value="yes" style="edgeLabel;html=1;align=center;verticalAlign=middle;resizable=0;points=[];" vertex="1" connectable="0" parent="v9P5yah0kmGHicEK6p0b-20">
          <mxGeometry x="-0.0333" y="-1" relative="1" as="geometry">
            <mxPoint as="offset" />
          </mxGeometry>
        </mxCell>
        <mxCell id="v9P5yah0kmGHicEK6p0b-15" value="is valid head" style="rhombus;whiteSpace=wrap;html=1;rounded=0;" vertex="1" parent="1">
          <mxGeometry x="660" y="260.0033333333335" width="80" height="80" as="geometry" />
        </mxCell>
        <mxCell id="v9P5yah0kmGHicEK6p0b-18" value="Error handle" style="rounded=0;whiteSpace=wrap;html=1;" vertex="1" parent="1">
          <mxGeometry x="640" y="110" width="120" height="60" as="geometry" />
        </mxCell>
        <mxCell id="v9P5yah0kmGHicEK6p0b-21" value="send to jitter to proces" style="rounded=1;whiteSpace=wrap;html=1;" vertex="1" parent="1">
          <mxGeometry x="790" y="270.00333333333356" width="120" height="60" as="geometry" />
        </mxCell>
      </root>
    </mxGraphModel>
  </diagram>
</mxfile>
